<svg width="149" height="493" viewBox="0 0 149 493" fill="none" xmlns="http://www.w3.org/2000/svg">
<rect width="148" height="490" transform="translate(0.726074 0.972656)" fill="#67A5D5"/>
<rect x="4.68066" y="47.9727" width="22.4182" height="22.4182" fill="#77BCF0"/>
<rect x="34.0986" y="47.9727" width="22.4182" height="22.4182" fill="#77BCF0"/>
<rect x="63.5171" y="47.9727" width="22.4182" height="22.4182" fill="#77BCF0"/>
<rect x="92.9351" y="47.9727" width="22.4182" height="22.4182" fill="#77BCF0"/>
<rect x="122.354" y="47.9727" width="22.4182" height="22.4182" fill="#77BCF0"/>
<rect x="4.68066" y="82.3909" width="22.4182" height="22.4182" fill="#77BCF0"/>
<rect x="34.0986" y="82.3909" width="22.4182" height="22.4182" fill="#77BCF0"/>
<rect x="63.5171" y="82.3909" width="22.4182" height="22.4182" fill="#77BCF0"/>
<rect x="92.9351" y="82.3909" width="22.4182" height="22.4182" fill="#77BCF0"/>
<rect x="122.354" y="82.3909" width="22.4182" height="22.4182" fill="#77BCF0"/>
<rect x="4.68066" y="116.809" width="22.4182" height="22.4182" fill="#77BCF0"/>
<rect x="34.0986" y="116.809" width="22.4182" height="22.4182" fill="#77BCF0"/>
<rect x="63.5171" y="116.809" width="22.4182" height="22.4182" fill="#77BCF0"/>
<rect x="92.9351" y="116.809" width="22.4182" height="22.4182" fill="#77BCF0"/>
<rect x="122.354" y="116.809" width="22.4182" height="22.4182" fill="#77BCF0"/>
<rect x="4.68066" y="151.227" width="22.4182" height="22.4182" fill="#77BCF0"/>
<rect x="34.0986" y="151.227" width="22.4182" height="22.4182" fill="#77BCF0"/>
<rect x="63.5171" y="151.227" width="22.4182" height="22.4182" fill="#77BCF0"/>
<rect x="92.9351" y="151.227" width="22.4182" height="22.4182" fill="#77BCF0"/>
<rect x="122.354" y="151.227" width="22.4182" height="22.4182" fill="#77BCF0"/>
<rect x="4.68066" y="185.646" width="22.4182" height="22.4182" fill="#77BCF0"/>
<rect x="34.0986" y="185.646" width="22.4182" height="22.4182" fill="#77BCF0"/>
<rect x="63.5171" y="185.646" width="22.4182" height="22.4182" fill="#77BCF0"/>
<rect x="92.9351" y="185.646" width="22.4182" height="22.4182" fill="#77BCF0"/>
<rect x="122.354" y="185.646" width="22.4182" height="22.4182" fill="#77BCF0"/>
<rect x="4.68066" y="220.064" width="22.4182" height="22.4182" fill="#77BCF0"/>
<rect x="34.0986" y="220.064" width="22.4182" height="22.4182" fill="#77BCF0"/>
<rect x="63.5171" y="220.064" width="22.4182" height="22.4182" fill="#77BCF0"/>
<rect x="92.9351" y="220.064" width="22.4182" height="22.4182" fill="#77BCF0"/>
<rect x="122.354" y="220.064" width="22.4182" height="22.4182" fill="#77BCF0"/>
<rect x="4.68066" y="254.482" width="22.4182" height="22.4182" fill="#77BCF0"/>
<rect x="34.0986" y="254.482" width="22.4182" height="22.4182" fill="#77BCF0"/>
<rect x="63.5171" y="254.482" width="22.4182" height="22.4182" fill="#77BCF0"/>
<rect x="92.9351" y="254.482" width="22.4182" height="22.4182" fill="#77BCF0"/>
<rect x="122.354" y="254.482" width="22.4182" height="22.4182" fill="#77BCF0"/>
<rect x="4.68066" y="288.9" width="22.4182" height="22.4182" fill="#77BCF0"/>
<rect x="34.0986" y="288.9" width="22.4182" height="22.4182" fill="#77BCF0"/>
<rect x="63.5171" y="288.9" width="22.4182" height="22.4182" fill="#77BCF0"/>
<rect x="92.9351" y="288.9" width="22.4182" height="22.4182" fill="#77BCF0"/>
<rect x="122.354" y="288.9" width="22.4182" height="22.4182" fill="#77BCF0"/>
<rect x="4.68066" y="323.318" width="22.4182" height="22.4182" fill="#77BCF0"/>
<rect x="34.0986" y="323.318" width="22.4182" height="22.4182" fill="#77BCF0"/>
<rect x="63.5171" y="323.318" width="22.4182" height="22.4182" fill="#77BCF0"/>
<rect x="92.9351" y="323.318" width="22.4182" height="22.4182" fill="#77BCF0"/>
<rect x="122.354" y="323.318" width="22.4182" height="22.4182" fill="#77BCF0"/>
<rect x="4.68066" y="357.737" width="22.4182" height="22.4182" fill="#77BCF0"/>
<rect x="34.0986" y="357.737" width="22.4182" height="22.4182" fill="#77BCF0"/>
<rect x="63.5171" y="357.737" width="22.4182" height="22.4182" fill="#77BCF0"/>
<rect x="92.9351" y="357.737" width="22.4182" height="22.4182" fill="#77BCF0"/>
<rect x="122.354" y="357.737" width="22.4182" height="22.4182" fill="#77BCF0"/>
<rect x="4.68066" y="392.155" width="22.4182" height="22.4182" fill="#77BCF0"/>
<rect x="34.0986" y="392.155" width="22.4182" height="22.4182" fill="#77BCF0"/>
<rect x="63.5171" y="392.155" width="22.4182" height="22.4182" fill="#77BCF0"/>
<rect x="92.9351" y="392.155" width="22.4182" height="22.4182" fill="#77BCF0"/>
<rect x="122.354" y="392.155" width="22.4182" height="22.4182" fill="#77BCF0"/>
<rect x="4.68066" y="426.573" width="22.4182" height="22.4182" fill="#77BCF0"/>
<rect x="34.0986" y="426.573" width="22.4182" height="22.4182" fill="#77BCF0"/>
<rect x="63.5171" y="426.573" width="22.4182" height="22.4182" fill="#77BCF0"/>
<rect x="92.9351" y="426.573" width="22.4182" height="22.4182" fill="#77BCF0"/>
<rect x="122.354" y="426.573" width="22.4182" height="22.4182" fill="#77BCF0"/>
<rect x="4.68066" y="460.991" width="22.4182" height="22.4182" fill="#77BCF0"/>
<rect x="34.0986" y="460.991" width="22.4182" height="22.4182" fill="#77BCF0"/>
<rect x="63.5171" y="460.991" width="22.4182" height="22.4182" fill="#77BCF0"/>
<rect x="92.9351" y="460.991" width="22.4182" height="22.4182" fill="#77BCF0"/>
<rect x="122.354" y="460.991" width="22.4182" height="22.4182" fill="#77BCF0"/>
</svg>
