<svg width="334" height="164" viewBox="0 0 334 164" fill="none" xmlns="http://www.w3.org/2000/svg">
<path d="M110.93 163.921C119.139 153.438 124.031 140.235 124.031 125.888C124.031 91.7901 96.3893 64.1479 62.2909 64.1479C28.1925 64.1479 0.550293 91.7901 0.550293 125.888C0.550293 138.487 4.32383 150.204 10.8023 159.972C12.5017 162.534 15.4476 163.921 18.5221 163.921H110.93Z" fill="#F2EEEE"/>
<path d="M253.645 163.921C265.093 147.188 271.789 126.948 271.789 105.144C271.789 47.5856 225.129 0.925583 167.571 0.925583C110.013 0.925583 63.3533 47.5856 63.3533 105.144C63.3533 126.948 70.0493 147.188 81.4972 163.921H253.645Z" fill="#F2EEEE"/>
<path d="M315.558 163.921C318.633 163.921 321.579 162.534 323.278 159.972C329.756 150.204 333.53 138.487 333.53 125.888C333.53 91.7901 305.888 64.1479 271.789 64.1479C237.691 64.1479 210.049 91.7901 210.049 125.888C210.049 140.235 214.942 153.438 223.15 163.921H315.558Z" fill="#F2EEEE"/>
</svg>
