<svg width="388" height="137" viewBox="0 0 388 137" fill="none" xmlns="http://www.w3.org/2000/svg">
<path d="M371.131 136.874C374.396 136.874 377.504 135.307 379.147 132.485C384.55 123.206 387.645 112.416 387.645 100.904C387.645 66.1912 359.505 38.0507 324.792 38.0507C290.078 38.0507 261.938 66.1912 261.938 100.904C261.938 114.282 266.117 126.684 273.242 136.874H371.131Z" fill="#F2EEEE"/>
<path d="M309.24 136.874C310.193 130.838 310.688 124.65 310.688 118.345C310.688 53.281 257.943 0.53595 192.879 0.53595C127.815 0.53595 75.0698 53.281 75.0698 118.345C75.0698 124.65 75.5651 130.838 76.5187 136.874H309.24Z" fill="#F2EEEE"/>
<path d="M114.397 136.874C121.521 126.684 125.7 114.282 125.7 100.904C125.7 66.1912 97.5598 38.0507 62.8467 38.0507C28.1337 38.0507 -0.00683594 66.1912 -0.00683594 100.904C-0.00683594 112.416 3.08814 123.206 8.49147 132.485C10.1345 135.307 13.2419 136.874 16.5072 136.874H114.397Z" fill="#F2EEEE"/>
</svg>
