<svg width="45" height="478" viewBox="0 0 45 478" fill="none" xmlns="http://www.w3.org/2000/svg">
<path d="M13.0536 6.08539C13.0536 6.08539 14.5533 0.0659219 24.4238 0.065918C37.0653 0.065913 44.8901 11.5622 44.8901 33.3543V478H30.8711V32.3543C30.8711 23.5217 24.8957 17.8977 14.3913 18.1244L13.8222 13.0023L13.0536 6.08539Z" fill="white"/>
<path d="M26.1628 27.3543C26.1628 21.2011 21.6147 18.1244 14.3913 18.1244C24.8957 17.8977 30.8711 23.5217 30.8711 32.3543V478H26.1628V27.3543Z" fill="#D9D9D9"/>
<path d="M13.0536 6.08539L13.8222 13.0023L14.3913 18.1244L5.54432 22.3449C4.55197 22.8183 3.63359 21.5765 4.37687 20.7663L11.4998 13.0023L3.10515 6.05247C2.30669 5.39143 2.91763 4.10172 3.93492 4.30081L13.0536 6.08539Z" fill="#FF7700"/>
<path d="M26.3755 6.20023C24.7852 6.95986 23.2948 7.99828 21.9776 9.31547C20.6603 10.6327 19.6219 12.1232 18.8622 13.7136C19.3457 13.9624 19.858 14.1359 20.3816 14.234C21.0574 12.8653 21.965 11.5819 23.1044 10.4426C24.2438 9.30318 25.5272 8.39557 26.896 7.71973C26.7978 7.19608 26.6243 6.68378 26.3755 6.20023Z" fill="#02BAC4"/>
<path d="M25.3581 12.6962C26.2567 11.7976 26.7846 10.6687 26.9418 9.49948C25.9718 10.0519 25.0588 10.7419 24.2313 11.5694C23.4038 12.3969 22.7138 13.3099 22.1614 14.2799C23.3306 14.1227 24.4595 13.5948 25.3581 12.6962Z" fill="#5E006B"/>
<path d="M26.896 7.71973C25.5272 8.39557 24.2438 9.30318 23.1044 10.4426C21.965 11.5819 21.0574 12.8653 20.3816 14.234C20.9688 14.3441 21.5702 14.3594 22.1614 14.2799C22.7138 13.3099 23.4038 12.3969 24.2313 11.5694C25.0588 10.7419 25.9718 10.0519 26.9418 9.49948C27.0213 8.90834 27.006 8.3069 26.896 7.71973Z" fill="#00098A"/>
<path d="M25.4343 4.88575C23.7803 5.70911 22.2293 6.81007 20.8507 8.18862C19.4721 9.56723 18.3711 11.1183 17.5477 12.7725C17.9479 13.1576 18.3915 13.4713 18.8622 13.7136C19.6219 12.1232 20.6603 10.6327 21.9776 9.31547C23.2948 7.99828 24.7852 6.95986 26.3755 6.20023C26.1332 5.72945 25.8195 5.28593 25.4343 4.88575Z" fill="#8DC402"/>
<path d="M25.3581 4.80807C24.9554 4.40537 24.5064 4.07711 24.0283 3.8233C22.4843 4.67342 21.0328 5.75295 19.7238 7.0619C18.4149 8.37085 17.3353 9.82233 16.4852 11.3664C16.739 11.8445 17.0673 12.2935 17.47 12.6962C17.4957 12.7219 17.5216 12.7473 17.5477 12.7725C18.3711 11.1183 19.4721 9.56723 20.8507 8.18862C22.2293 6.81007 23.7803 5.70911 25.4343 4.88575C25.4092 4.85967 25.3838 4.83378 25.3581 4.80807Z" fill="#F5D433"/>
<path d="M21.9666 3.20166C20.7737 3.9774 19.6432 4.88849 18.5968 5.93491C17.5504 6.98131 16.6393 8.1118 15.8636 9.30463C15.9341 10.017 16.1413 10.7185 16.4852 11.3664C17.3353 9.82233 18.4149 8.37085 19.7238 7.0619C21.0328 5.75295 22.4843 4.67342 24.0283 3.8233C23.3804 3.47937 22.679 3.27216 21.9666 3.20166Z" fill="#F58E33"/>
<path d="M18.5968 5.93491C19.6432 4.88849 20.7737 3.9774 21.9666 3.20166C20.3611 3.04277 18.6998 3.57825 17.47 4.80807C16.2402 6.03789 15.7047 7.69913 15.8636 9.30463C16.6393 8.1118 17.5504 6.98131 18.5968 5.93491Z" fill="#F53333"/>
</svg>
