<svg width="48" height="478" viewBox="0 0 48 478" fill="none" xmlns="http://www.w3.org/2000/svg">
<path d="M15.8536 6.08539C15.8536 6.08539 17.3533 0.0659219 27.2238 0.065918C39.8653 0.065913 47.6901 11.5622 47.6901 33.3543V478H33.6711V32.3543C33.6711 23.5217 27.6957 17.8977 17.1913 18.1244L15.8536 6.08539Z" fill="white"/>
<path d="M17.1913 18.1244H6.45929C4.56657 18.1244 3.73276 15.7391 5.21328 14.56L15.8536 6.08539L17.1913 18.1244Z" fill="url(#paint0_linear_25_33)"/>
<path d="M28.9627 27.3543C28.9627 21.2011 24.4147 18.1244 17.1913 18.1244C27.6957 17.8977 33.6711 23.5217 33.6711 32.3543V478H28.9627V27.3543Z" fill="#D9D9D9"/>
<path d="M29.1754 6.20023C27.5851 6.95986 26.0947 7.99828 24.7775 9.31547C23.4603 10.6327 22.4218 12.1232 21.6622 13.7136C22.1457 13.9624 22.6579 14.1359 23.1815 14.234C23.8574 12.8653 24.765 11.5819 25.9043 10.4426C27.0437 9.30318 28.3271 8.39557 29.6959 7.71973C29.5978 7.19608 29.4243 6.68378 29.1754 6.20023Z" fill="#02BAC4"/>
<path d="M28.1581 12.6962C29.0566 11.7976 29.5845 10.6687 29.7417 9.49948C28.7717 10.0519 27.8587 10.7419 27.0312 11.5694C26.2037 12.3969 25.5137 13.3099 24.9613 14.2799C26.1305 14.1227 27.2595 13.5948 28.1581 12.6962Z" fill="#5E006B"/>
<path d="M29.6959 7.71973C28.3271 8.39557 27.0437 9.30318 25.9043 10.4426C24.765 11.5819 23.8574 12.8653 23.1815 14.234C23.7687 14.3441 24.3702 14.3594 24.9613 14.2799C25.5137 13.3099 26.2037 12.3969 27.0312 11.5694C27.8587 10.7419 28.7717 10.0519 29.7417 9.49948C29.8212 8.90834 29.8059 8.3069 29.6959 7.71973Z" fill="#00098A"/>
<path d="M28.2343 4.88575C26.5802 5.70911 25.0292 6.81007 23.6506 8.18862C22.272 9.56723 21.171 11.1183 20.3477 12.7725C20.7479 13.1576 21.1914 13.4713 21.6622 13.7136C22.4218 12.1232 23.4603 10.6327 24.7775 9.31547C26.0947 7.99828 27.5851 6.95986 29.1754 6.20023C28.9331 5.72945 28.6194 5.28593 28.2343 4.88575Z" fill="#8DC402"/>
<path d="M28.1581 4.80807C27.7553 4.40537 27.3064 4.07711 26.8282 3.8233C25.2842 4.67342 23.8327 5.75295 22.5237 7.0619C21.2148 8.37085 20.1353 9.82233 19.2852 11.3664C19.539 11.8445 19.8672 12.2935 20.2699 12.6962C20.2957 12.7219 20.3216 12.7473 20.3477 12.7725C21.171 11.1183 22.272 9.56723 23.6506 8.18862C25.0292 6.81007 26.5802 5.70911 28.2343 4.88575C28.2092 4.85967 28.1838 4.83378 28.1581 4.80807Z" fill="#F5D433"/>
<path d="M24.7665 3.20166C23.5736 3.9774 22.4431 4.88849 21.3967 5.93491C20.3503 6.98131 19.4392 8.1118 18.6635 9.30463C18.734 10.017 18.9412 10.7185 19.2852 11.3664C20.1353 9.82233 21.2148 8.37085 22.5237 7.0619C23.8327 5.75295 25.2842 4.67342 26.8282 3.8233C26.1804 3.47937 25.4789 3.27216 24.7665 3.20166Z" fill="#F58E33"/>
<path d="M21.3967 5.93491C22.4431 4.88849 23.5736 3.9774 24.7665 3.20166C23.161 3.04277 21.4998 3.57825 20.2699 4.80807C19.0401 6.03789 18.5046 7.69913 18.6635 9.30463C19.4392 8.1118 20.3503 6.98131 21.3967 5.93491Z" fill="#F53333"/>
<defs>
<linearGradient id="paint0_linear_25_33" x1="14.1024" y1="20.4745" x2="25.6332" y2="42.6148" gradientUnits="userSpaceOnUse">
<stop stop-color="#FF7700"/>
<stop offset="1" stop-color="#D06100"/>
</linearGradient>
</defs>
</svg>
