<svg width="150" height="588" viewBox="0 0 150 588" fill="none" xmlns="http://www.w3.org/2000/svg">
<rect width="148.327" height="587.719" transform="translate(0.935303 0.28125)" fill="#6FB1E3"/>
<rect x="5.05322" y="47.2812" width="22.4182" height="22.4182" fill="#7CC4FB"/>
<rect x="34.4714" y="47.2812" width="22.4182" height="22.4182" fill="#7CC4FB"/>
<rect x="63.8896" y="47.2812" width="22.4182" height="22.4182" fill="#7CC4FB"/>
<rect x="93.3079" y="47.2812" width="22.4182" height="22.4182" fill="#7CC4FB"/>
<rect x="122.726" y="47.2812" width="22.4182" height="22.4182" fill="#7CC4FB"/>
<rect x="5.05322" y="81.6995" width="22.4182" height="22.4182" fill="#7CC4FB"/>
<rect x="34.4714" y="81.6995" width="22.4182" height="22.4182" fill="#7CC4FB"/>
<rect x="63.8896" y="81.6995" width="22.4182" height="22.4182" fill="#7CC4FB"/>
<rect x="93.3079" y="81.6995" width="22.4182" height="22.4182" fill="#7CC4FB"/>
<rect x="122.726" y="81.6995" width="22.4182" height="22.4182" fill="#7CC4FB"/>
<rect x="5.05322" y="116.118" width="22.4182" height="22.4182" fill="#7CC4FB"/>
<rect x="34.4714" y="116.118" width="22.4182" height="22.4182" fill="#7CC4FB"/>
<rect x="63.8896" y="116.118" width="22.4182" height="22.4182" fill="#7CC4FB"/>
<rect x="93.3079" y="116.118" width="22.4182" height="22.4182" fill="#7CC4FB"/>
<rect x="122.726" y="116.118" width="22.4182" height="22.4182" fill="#7CC4FB"/>
<rect x="5.05322" y="150.536" width="22.4182" height="22.4182" fill="#7CC4FB"/>
<rect x="34.4714" y="150.536" width="22.4182" height="22.4182" fill="#7CC4FB"/>
<rect x="63.8896" y="150.536" width="22.4182" height="22.4182" fill="#7CC4FB"/>
<rect x="93.3079" y="150.536" width="22.4182" height="22.4182" fill="#7CC4FB"/>
<rect x="122.726" y="150.536" width="22.4182" height="22.4182" fill="#7CC4FB"/>
<rect x="5.05322" y="184.954" width="22.4182" height="22.4182" fill="#7CC4FB"/>
<rect x="34.4714" y="184.954" width="22.4182" height="22.4182" fill="#7CC4FB"/>
<rect x="63.8896" y="184.954" width="22.4182" height="22.4182" fill="#7CC4FB"/>
<rect x="93.3079" y="184.954" width="22.4182" height="22.4182" fill="#7CC4FB"/>
<rect x="122.726" y="184.954" width="22.4182" height="22.4182" fill="#7CC4FB"/>
<rect x="5.05322" y="219.372" width="22.4182" height="22.4182" fill="#7CC4FB"/>
<rect x="34.4714" y="219.372" width="22.4182" height="22.4182" fill="#7CC4FB"/>
<rect x="63.8896" y="219.372" width="22.4182" height="22.4182" fill="#7CC4FB"/>
<rect x="93.3079" y="219.372" width="22.4182" height="22.4182" fill="#7CC4FB"/>
<rect x="122.726" y="219.372" width="22.4182" height="22.4182" fill="#7CC4FB"/>
<rect x="5.05322" y="253.791" width="22.4182" height="22.4182" fill="#7CC4FB"/>
<rect x="34.4714" y="253.791" width="22.4182" height="22.4182" fill="#7CC4FB"/>
<rect x="63.8896" y="253.791" width="22.4182" height="22.4182" fill="#7CC4FB"/>
<rect x="93.3079" y="253.791" width="22.4182" height="22.4182" fill="#7CC4FB"/>
<rect x="122.726" y="253.791" width="22.4182" height="22.4182" fill="#7CC4FB"/>
<rect x="5.05322" y="288.209" width="22.4182" height="22.4182" fill="#7CC4FB"/>
<rect x="34.4714" y="288.209" width="22.4182" height="22.4182" fill="#7CC4FB"/>
<rect x="63.8896" y="288.209" width="22.4182" height="22.4182" fill="#7CC4FB"/>
<rect x="93.3079" y="288.209" width="22.4182" height="22.4182" fill="#7CC4FB"/>
<rect x="122.726" y="288.209" width="22.4182" height="22.4182" fill="#7CC4FB"/>
<rect x="5.05322" y="322.627" width="22.4182" height="22.4182" fill="#7CC4FB"/>
<rect x="34.4714" y="322.627" width="22.4182" height="22.4182" fill="#7CC4FB"/>
<rect x="63.8896" y="322.627" width="22.4182" height="22.4182" fill="#7CC4FB"/>
<rect x="93.3079" y="322.627" width="22.4182" height="22.4182" fill="#7CC4FB"/>
<rect x="122.726" y="322.627" width="22.4182" height="22.4182" fill="#7CC4FB"/>
<rect x="5.05322" y="357.045" width="22.4182" height="22.4182" fill="#7CC4FB"/>
<rect x="34.4714" y="357.045" width="22.4182" height="22.4182" fill="#7CC4FB"/>
<rect x="63.8896" y="357.045" width="22.4182" height="22.4182" fill="#7CC4FB"/>
<rect x="93.3079" y="357.045" width="22.4182" height="22.4182" fill="#7CC4FB"/>
<rect x="122.726" y="357.045" width="22.4182" height="22.4182" fill="#7CC4FB"/>
<rect x="5.05322" y="391.463" width="22.4182" height="22.4182" fill="#7CC4FB"/>
<rect x="34.4714" y="391.463" width="22.4182" height="22.4182" fill="#7CC4FB"/>
<rect x="63.8896" y="391.463" width="22.4182" height="22.4182" fill="#7CC4FB"/>
<rect x="93.3079" y="391.463" width="22.4182" height="22.4182" fill="#7CC4FB"/>
<rect x="122.726" y="391.463" width="22.4182" height="22.4182" fill="#7CC4FB"/>
<rect x="5.05322" y="425.882" width="22.4182" height="22.4182" fill="#7CC4FB"/>
<rect x="34.4714" y="425.882" width="22.4182" height="22.4182" fill="#7CC4FB"/>
<rect x="63.8896" y="425.882" width="22.4182" height="22.4182" fill="#7CC4FB"/>
<rect x="93.3079" y="425.882" width="22.4182" height="22.4182" fill="#7CC4FB"/>
<rect x="122.726" y="425.882" width="22.4182" height="22.4182" fill="#7CC4FB"/>
<rect x="5.05322" y="460.3" width="22.4182" height="22.4182" fill="#7CC4FB"/>
<rect x="34.4714" y="460.3" width="22.4182" height="22.4182" fill="#7CC4FB"/>
<rect x="63.8896" y="460.3" width="22.4182" height="22.4182" fill="#7CC4FB"/>
<rect x="93.3079" y="460.3" width="22.4182" height="22.4182" fill="#7CC4FB"/>
<rect x="122.726" y="460.3" width="22.4182" height="22.4182" fill="#7CC4FB"/>
<rect x="5.05322" y="494.718" width="22.4182" height="22.4182" fill="#7CC4FB"/>
<rect x="34.4714" y="494.718" width="22.4182" height="22.4182" fill="#7CC4FB"/>
<rect x="63.8896" y="494.718" width="22.4182" height="22.4182" fill="#7CC4FB"/>
<rect x="93.3079" y="494.718" width="22.4182" height="22.4182" fill="#7CC4FB"/>
<rect x="122.726" y="494.718" width="22.4182" height="22.4182" fill="#7CC4FB"/>
<rect x="5.05322" y="529.136" width="22.4182" height="22.4182" fill="#7CC4FB"/>
<rect x="34.4714" y="529.136" width="22.4182" height="22.4182" fill="#7CC4FB"/>
<rect x="63.8896" y="529.136" width="22.4182" height="22.4182" fill="#7CC4FB"/>
<rect x="93.3079" y="529.136" width="22.4182" height="22.4182" fill="#7CC4FB"/>
<rect x="122.726" y="529.136" width="22.4182" height="22.4182" fill="#7CC4FB"/>
<rect x="5.05322" y="563.554" width="22.4182" height="22.4182" fill="#7CC4FB"/>
<rect x="34.4714" y="563.554" width="22.4182" height="22.4182" fill="#7CC4FB"/>
<rect x="63.8896" y="563.554" width="22.4182" height="22.4182" fill="#7CC4FB"/>
<rect x="93.3079" y="563.554" width="22.4182" height="22.4182" fill="#7CC4FB"/>
<rect x="122.726" y="563.554" width="22.4182" height="22.4182" fill="#7CC4FB"/>
</svg>
